<?xml version="1.0" standalone="no"?>
<!DOCTYPE svg PUBLIC "-//W3C//DTD SVG 20010904//EN"
 "http://www.w3.org/TR/2001/REC-SVG-20010904/DTD/svg10.dtd">
<svg version="1.0" xmlns="http://www.w3.org/2000/svg"
 width="500.000000pt" height="500.000000pt" viewBox="0 0 500.000000 500.000000"
 preserveAspectRatio="xMidYMid meet">
<metadata>
Created by potrace 1.11, written by Peter Selinger 2001-2013
</metadata>
<g transform="translate(0.000000,500.000000) scale(0.100000,-0.100000)"
fill="#000000" stroke="none">
<path d="M2440 3493 c-192 -32 -466 -171 -668 -340 -144 -120 -213 -195 -247
-268 -70 -149 -111 -331 -102 -455 5 -75 9 -85 102 -261 53 -101 101 -188 105
-192 4 -4 21 3 37 17 24 20 36 45 58 123 32 116 41 135 49 113 4 -8 -5 -52
-18 -98 l-24 -83 22 16 c32 23 45 28 61 21 25 -9 17 -38 -17 -67 l-33 -28 103
-1 c61 0 102 -4 102 -10 0 -6 -46 -10 -119 -10 -112 0 -122 -2 -148 -24 l-27
-24 29 -43 c44 -67 112 -143 161 -180 24 -18 44 -37 44 -41 0 -5 -37 -6 -83
-2 -52 4 -104 2 -140 -6 -62 -12 -117 -50 -117 -80 0 -10 28 -53 63 -96 54
-68 73 -84 146 -121 45 -23 120 -55 165 -70 71 -24 94 -27 196 -26 112 1 270
29 293 52 20 20 -112 156 -213 222 l-53 34 144 6 c161 7 223 17 389 60 209 55
421 150 527 236 72 58 156 189 202 315 47 127 55 178 56 343 0 176 -11 237
-68 370 -116 273 -401 524 -669 589 -63 15 -241 20 -308 9z"/>
</g>
</svg>
